<?xml version="1.0" encoding="iso-8859-1"?>
<!-- Generator: Adobe Illustrator 19.0.0, SVG Export Plug-In . SVG Version: 6.00 Build 0)  -->
<svg version="1.1" id="Layer_1" xmlns="http://www.w3.org/2000/svg" xmlns:xlink="http://www.w3.org/1999/xlink" x="0px" y="0px"
	 viewBox="0 0 512 512" style="enable-background:new 0 0 512 512;" xml:space="preserve">
<path style="fill:#FCD577;" d="M256.018,0c-76.235-0.011-138.047,61.785-138.058,138.02c-0.007,53.647,30.581,100.145,75.277,122.99
	l-0.031,226.233l39.012,24.752L267.481,512h0.006l51.213-51.199L299.255,428.8l19.454-31.996l-30.681-43.24
	c0,0,30.693-43.232,30.693-43.231l0.007-49.305c44.703-22.833,75.303-69.323,75.311-122.97C394.048,61.823,332.253,0.011,256.018,0z
	 M255.999,132.45c-20.271-0.002-36.701-16.438-36.699-36.709s16.438-36.701,36.709-36.699c20.271,0.002,36.701,16.438,36.699,36.708
	C292.705,116.022,276.271,132.452,255.999,132.45z"/>
<g>
	<path style="fill:#EAC36E;" d="M255.983,138.338c-23.485,0-42.592-19.107-42.592-42.592s19.107-42.592,42.592-42.592
		s42.592,19.107,42.592,42.592S279.467,138.338,255.983,138.338z M255.983,64.93c-16.992,0-30.816,13.824-30.816,30.816
		s13.824,30.816,30.816,30.816s30.816-13.824,30.816-30.816S272.975,64.93,255.983,64.93z"/>
	<rect x="199.461" y="174.627" style="fill:#EAC36E;" width="113.05" height="17.664"/>
	<rect x="232.222" y="266.916" style="fill:#EAC36E;" width="15.526" height="245.083"/>
</g>
<g>
</g>
<g>
</g>
<g>
</g>
<g>
</g>
<g>
</g>
<g>
</g>
<g>
</g>
<g>
</g>
<g>
</g>
<g>
</g>
<g>
</g>
<g>
</g>
<g>
</g>
<g>
</g>
<g>
</g>
</svg>
