<?xml version="1.0" encoding="iso-8859-1"?>
<!-- Generator: Adobe Illustrator 19.0.0, SVG Export Plug-In . SVG Version: 6.00 Build 0)  -->
<svg version="1.1" id="Layer_1" xmlns="http://www.w3.org/2000/svg" xmlns:xlink="http://www.w3.org/1999/xlink" x="0px" y="0px"
	 viewBox="0 0 480 480" style="enable-background:new 0 0 480 480;" xml:space="preserve">
<path style="fill:#58F681;" d="M448,384c-7.08,0-13.376,3.12-17.768,8H424v-48h-64v-6.232c4.88-4.392,8-10.688,8-17.768
	c0-13.256-10.744-24-24-24s-24,10.744-24,24c0,7.08,3.12,13.376,8,17.768V344h-64v48h-6.232c-4.392-4.88-10.688-8-17.768-8
	c-13.256,0-24,10.744-24,24s10.744,24,24,24c7.08,0,13.376-3.12,17.768-8H264v48h160v-48h6.232c4.392,4.88,10.688,8,17.768,8
	c13.256,0,24-10.744,24-24S461.256,384,448,384z"/>
<path style="fill:#E5D4B5;" d="M160,208h-6.232c-4.392,4.88-10.688,8-17.768,8c-13.256,0-24-10.744-24-24s10.744-24,24-24
	c7.08,0,13.376,3.12,17.768,8H160v-48h64v-6.232c-4.88-4.392-8-10.688-8-17.768c0-13.256,10.744-24,24-24c13.256,0,24,10.744,24,24
	c0,7.08-3.12,13.376-8,17.768V128h64v48h6.232c4.392-4.88,10.688-8,17.768-8c13.256,0,24,10.744,24,24s-10.744,24-24,24
	c-7.08,0-13.376-3.12-17.768-8H320v48h152V8H8v248h152V208z"/>
<g>
	<path style="fill:#010133;" d="M448,376c-5.648,0-11.168,1.536-16,4.36V344c0-4.424-3.584-8-8-8h-52.36
		c2.824-4.832,4.36-10.352,4.36-16c0-17.648-14.352-32-32-32s-32,14.352-32,32c0,5.648,1.536,11.168,4.36,16H264
		c-4.416,0-8,3.576-8,8v36.36c-4.832-2.824-10.352-4.36-16-4.36c-17.648,0-32,14.352-32,32s14.352,32,32,32
		c5.648,0,11.168-1.536,16-4.36V472c0,4.424,3.584,8,8,8h160c4.416,0,8-3.576,8-8v-36.36c4.832,2.824,10.352,4.36,16,4.36
		c17.648,0,32-14.352,32-32S465.648,376,448,376z M448,424c-4.512,0-8.72-1.896-11.832-5.36c-1.512-1.68-3.672-2.64-5.944-2.64H424
		c-4.416,0-8,3.576-8,8v40H272v-40c0-4.424-3.584-8-8-8h-6.224c-2.264,0-4.424,0.96-5.944,2.64c-3.112,3.464-7.32,5.36-11.832,5.36
		c-8.824,0-16-7.176-16-16s7.176-16,16-16c4.512,0,8.72,1.896,11.832,5.36c1.512,1.68,3.672,2.64,5.944,2.64H264
		c4.416,0,8-3.576,8-8v-40h56c4.416,0,8-3.576,8-8v-6.224c0-2.264-0.96-4.424-2.64-5.936c-3.456-3.12-5.36-7.328-5.36-11.84
		c0-8.824,7.176-16,16-16s16,7.176,16,16c0,4.512-1.904,8.72-5.36,11.832c-1.68,1.52-2.64,3.672-2.64,5.944V344c0,4.424,3.584,8,8,8
		h56v40c0,4.424,3.584,8,8,8h6.224c2.264,0,4.424-0.96,5.944-2.64c3.112-3.464,7.32-5.36,11.832-5.36c8.824,0,16,7.176,16,16
		S456.824,424,448,424z"/>
	<path style="fill:#010133;" d="M8,264h152c4.416,0,8-3.576,8-8v-48c0-4.424-3.584-8-8-8h-6.224c-2.264,0-4.424,0.96-5.944,2.64
		c-3.112,3.464-7.32,5.36-11.832,5.36c-8.824,0-16-7.176-16-16s7.176-16,16-16c4.512,0,8.72,1.896,11.832,5.36
		c1.512,1.68,3.672,2.64,5.944,2.64H160c4.416,0,8-3.576,8-8v-40h56c4.416,0,8-3.576,8-8v-6.224c0-2.264-0.96-4.424-2.64-5.936
		c-3.456-3.12-5.36-7.328-5.36-11.84c0-8.824,7.176-16,16-16s16,7.176,16,16c0,4.512-1.904,8.72-5.36,11.832
		c-1.68,1.52-2.64,3.672-2.64,5.944V128c0,4.424,3.584,8,8,8h56v40c0,4.424,3.584,8,8,8h6.224c2.264,0,4.424-0.96,5.944-2.64
		c3.112-3.464,7.32-5.36,11.832-5.36c8.824,0,16,7.176,16,16s-7.176,16-16,16c-4.512,0-8.72-1.896-11.832-5.36
		c-1.512-1.68-3.672-2.64-5.944-2.64H320c-4.416,0-8,3.576-8,8v48c0,4.424,3.584,8,8,8h152c4.416,0,8-3.576,8-8V8
		c0-4.424-3.584-8-8-8H8C3.584,0,0,3.576,0,8v248C0,260.424,3.584,264,8,264z M16,16h448v232H328v-28.36
		c4.832,2.824,10.352,4.36,16,4.36c17.648,0,32-14.352,32-32s-14.352-32-32-32c-5.648,0-11.168,1.536-16,4.36V128
		c0-4.424-3.584-8-8-8h-52.36c2.824-4.832,4.36-10.352,4.36-16c0-17.648-14.352-32-32-32s-32,14.352-32,32
		c0,5.648,1.536,11.168,4.36,16H160c-4.416,0-8,3.576-8,8v36.36c-4.832-2.824-10.352-4.36-16-4.36c-17.648,0-32,14.352-32,32
		s14.352,32,32,32c5.648,0,11.168-1.536,16-4.36V248H16V16z"/>
	<path style="fill:#010133;" d="M240,187.312l18.344,18.344l11.312-11.312l-32-32c-3.128-3.128-8.184-3.128-11.312,0l-32,32
		l11.312,11.312L224,187.312V264h16V187.312z"/>
	<rect x="224" y="280" style="fill:#010133;" width="16" height="16"/>
	<rect x="224" y="312" style="fill:#010133;" width="16" height="16"/>
	<rect x="224" y="344" style="fill:#010133;" width="16" height="16"/>
	<rect x="48" y="280" style="fill:#010133;" width="16" height="16"/>
	<rect x="48" y="312" style="fill:#010133;" width="16" height="16"/>
	<rect x="48" y="344" style="fill:#010133;" width="16" height="16"/>
	<rect x="48" y="376" style="fill:#010133;" width="16" height="16"/>
	<rect x="48" y="408" style="fill:#010133;" width="16" height="16"/>
	<rect x="80" y="408" style="fill:#010133;" width="16" height="16"/>
	<rect x="112" y="408" style="fill:#010133;" width="16" height="16"/>
	<rect x="144" y="408" style="fill:#010133;" width="16" height="16"/>
	<rect x="176" y="408" style="fill:#010133;" width="16" height="16"/>
</g>
</svg>
