<?xml version="1.0" encoding="iso-8859-1"?>
<!-- Generator: Adobe Illustrator 19.0.0, SVG Export Plug-In . SVG Version: 6.00 Build 0)  -->
<svg version="1.1" id="Layer_1" xmlns="http://www.w3.org/2000/svg" xmlns:xlink="http://www.w3.org/1999/xlink" x="0px" y="0px"
	 viewBox="0 0 512 512" style="enable-background:new 0 0 512 512;" xml:space="preserve">
<path style="fill:#FFDE33;" d="M421,166c0,50.7-22.5,99.6-70.201,135l-48.898,30H210.4l-48.9-30c-0.298,0-0.298,0-0.298,0
	c-52.8-37.2-78.602-99.901-67.8-164.101C104.801,71.499,155.799,17.1,220.6,3.6C232.301,1.199,244.3,0,256,0
	c37.8,0,74.399,13.599,104.099,37.899C398.8,69.399,421,116.199,421,166z"/>
<path style="fill:#FFBC33;" d="M421,166c0,50.7-22.5,99.6-70.201,135l-48.898,30H256V0c37.8,0,74.399,13.599,104.099,37.899
	C398.8,69.399,421,116.199,421,166z"/>
<path style="fill:#7F838C;" d="M211,437v30c0,24.814,20.186,45,45,45s45-20.186,45-45v-30H211z"/>
<g>
	<path style="fill:#FFBC33;" d="M497,181h-31c-8.291,0-15-6.709-15-15s6.709-15,15-15h31c8.291,0,15,6.709,15,15
		S505.291,181,497,181z"/>
	<path style="fill:#FFBC33;" d="M429.789,67.211c-5.859-5.859-5.859-15.352,0-21.211L451,24.789c5.859-5.859,15.352-5.859,21.211,0
		s5.859,15.352,0,21.211L451,67.211C445.14,73.07,435.649,73.07,429.789,67.211z"/>
	<path style="fill:#FFBC33;" d="M451,307.211L429.789,286c-5.859-5.859-5.859-15.352,0-21.211s15.352-5.859,21.211,0L472.211,286
		c5.859,5.859,5.859,15.352,0,21.211C466.351,313.07,456.86,313.07,451,307.211z"/>
</g>
<g>
	<path style="fill:#FFDE33;" d="M46,181H15c-8.291,0-15-6.709-15-15s6.709-15,15-15h31c8.291,0,15,6.709,15,15S54.291,181,46,181z"
		/>
	<path style="fill:#FFDE33;" d="M61,67.211L39.789,46c-5.859-5.859-5.859-15.352,0-21.211s15.352-5.859,21.211,0L82.211,46
		c5.859,5.859,5.859,15.352,0,21.211C76.351,73.07,66.86,73.07,61,67.211z"/>
	<path style="fill:#FFDE33;" d="M39.789,307.211c-5.859-5.859-5.859-15.352,0-21.211L61,264.789c5.859-5.859,15.352-5.859,21.211,0
		s5.859,15.352,0,21.211L61,307.211C55.14,313.07,45.649,313.07,39.789,307.211z"/>
</g>
<path style="fill:#757982;" d="M301,467v-30h-45v75C280.814,512,301,491.814,301,467z"/>
<path style="fill:#FCB33B;" d="M326.499,206.499c-16.199,16.5-25.499,39-25.499,61.8V316c0,8.399-6.599,15-15,15s-15-6.601-15-15
	v-47.701c0-25.8,9.3-50.7,24.901-71.1l-9.901-9.9l-19.501,19.2C263.8,209.5,259.9,211,256,211s-7.8-1.5-10.499-4.501L226,187.299
	l-9.901,9.901C231.7,217.6,241,242.5,241,268.3V316c0,8.399-6.599,15-15,15s-15-6.601-15-15v-47.701c0-22.8-9.3-45.3-25.499-61.8
	c-6-5.7-6-15.3,0-21l30-30c5.7-5.999,15.298-5.999,20.999,0l19.501,19.2l19.501-19.2c5.7-5.999,15.298-5.999,20.999,0l30,30
	C332.5,191.199,332.5,200.799,326.499,206.499z"/>
<path style="fill:#F69838;" d="M326.499,206.499c-16.199,16.5-25.499,39-25.499,61.8V316c0,8.399-6.599,15-15,15s-15-6.601-15-15
	v-47.701c0-25.8,9.3-50.7,24.901-71.1l-9.901-9.9l-19.501,19.2C263.8,209.5,259.9,211,256,211v-36.301l19.501-19.2
	c5.7-5.999,15.298-5.999,20.999,0l30,30C332.5,191.199,332.5,200.799,326.499,206.499z"/>
<path style="fill:#C4CAD9;" d="M350.799,301c-13.2,9.899-19.799,24.6-19.799,36.899V361l-30,31h-90l-30-31v-24.901
	c0-12.001-6.599-25.8-19.501-35.099H350.799z"/>
<path style="fill:#B8BFCC;" d="M350.799,301c-13.2,9.899-19.799,24.6-19.799,36.899V361l-30,31h-45v-91H350.799z"/>
<path style="fill:#A1A7B3;" d="M181,361c0,62.195,0,19.063,0,46c0,24.814,20.186,45,45,45h60c24.814,0,45-20.186,45-45
	c0-26.937,0,16.206,0-46H181z"/>
<path style="fill:#979CA7;" d="M256,452h30c24.814,0,45-20.186,45-45c0-5.971,0-8.355,0-9.274c0-0.375,0-0.582,0-0.569
	c0-1.767,0-10.071,0-36.156h-75V452z"/>
<g>
</g>
<g>
</g>
<g>
</g>
<g>
</g>
<g>
</g>
<g>
</g>
<g>
</g>
<g>
</g>
<g>
</g>
<g>
</g>
<g>
</g>
<g>
</g>
<g>
</g>
<g>
</g>
<g>
</g>
</svg>
