<?xml version="1.0" encoding="iso-8859-1"?>
<!-- Generator: Adobe Illustrator 19.0.0, SVG Export Plug-In . SVG Version: 6.00 Build 0)  -->
<svg version="1.1" id="Layer_1" xmlns="http://www.w3.org/2000/svg" xmlns:xlink="http://www.w3.org/1999/xlink" x="0px" y="0px"
	 viewBox="0 0 495 495" style="enable-background:new 0 0 495 495;" xml:space="preserve">
<g>
	<path style="fill:#FFDA44;" d="M180,107.5c0-37.22,30.28-67.5,67.5-67.5S315,70.28,315,107.5v45.848
		c14.375,5.933,27.805,13.701,40,23.012V107.5C355,48.224,306.776,0,247.5,0S140,48.224,140,107.5v68.86
		c12.195-9.311,25.625-17.078,40-23.012V107.5z"/>
	<path style="fill:#FFA733;" d="M355,176.36c-12.195-9.311-25.625-17.078-40-23.012C294.18,144.754,271.386,140,247.5,140v113.931
		c22.056,0,40,17.944,40,40c0,14.773-8.056,27.691-20,34.619v50.566h-20V495c97.87,0,177.5-79.63,177.5-177.5
		C425,260.007,397.513,208.819,355,176.36z"/>
	<path style="fill:#FFB655;" d="M227.5,379.116V328.55c-11.944-6.927-20-19.846-20-34.619c0-22.056,17.944-40,40-40V140
		c-23.886,0-46.68,4.754-67.5,13.348c-14.375,5.933-27.805,13.701-40,23.012c-42.513,32.459-70,83.648-70,141.14
		C70,415.37,149.63,495,247.5,495V379.116H227.5z"/>
	<path style="fill:#AA6100;" d="M207.5,293.931c0,14.773,8.056,27.692,20,34.619v50.566h40V328.55c11.944-6.927,20-19.846,20-34.619
		c0-22.056-17.944-40-40-40C225.444,253.931,207.5,271.875,207.5,293.931z"/>
</g>
<g>
</g>
<g>
</g>
<g>
</g>
<g>
</g>
<g>
</g>
<g>
</g>
<g>
</g>
<g>
</g>
<g>
</g>
<g>
</g>
<g>
</g>
<g>
</g>
<g>
</g>
<g>
</g>
<g>
</g>
</svg>
