<?xml version="1.0" encoding="iso-8859-1"?>
<!-- Generator: Adobe Illustrator 19.0.0, SVG Export Plug-In . SVG Version: 6.00 Build 0)  -->
<svg version="1.1" id="Layer_1" xmlns="http://www.w3.org/2000/svg" xmlns:xlink="http://www.w3.org/1999/xlink" x="0px" y="0px"
	 viewBox="0 0 512.001 512.001" style="enable-background:new 0 0 512.001 512.001;" xml:space="preserve">
<path style="fill:#E6EEFF;" d="M360.366,434.047c0,36.939-26.113,68.146-62.415,74.302c-76.637,12.95-158.158-9.129-218.659-66.66
	l-4.458-4.458c-99.566-99.988-99.99-260.907,0-360.896c94.469-94.469,239.676-97.441,337.331-21.44L457.171,99.9
	c46.28,59.866,61.141,133.319,49.89,199.341c-6.156,36.302-37.576,62.628-74.515,62.628l-27.172-0.001
	c-24.627,0-44.795,20.168-45.007,45.007L360.366,434.047z"/>
<path style="fill:#DAE2F2;" d="M360.366,434.047c0,36.939-26.113,68.146-62.415,74.302c-76.637,12.95-158.158-9.129-218.659-66.66
	l-4.458-4.458L434.667,77.397L457.17,99.9c46.28,59.866,61.141,133.318,49.89,199.341c-6.156,36.302-37.576,62.628-74.515,62.628
	l-27.172-0.001c-24.627,0-44.795,20.168-45.007,45.007L360.366,434.047z"/>
<path style="fill:#FFBC33;" d="M255.327,451.9c-24.833,0-45.034-20.201-45.034-45.034c0-24.833,20.201-45.034,45.034-45.034
	s45.034,20.201,45.034,45.034C300.361,431.699,280.16,451.9,255.327,451.9z"/>
<path style="fill:#4DB5FF;" d="M255.327,151.674c-24.833,0-45.034-20.201-45.034-45.034s20.201-45.034,45.034-45.034
	s45.034,20.201,45.034,45.034S280.16,151.674,255.327,151.674z"/>
<path style="fill:#D92C48;" d="M405.44,301.787c-24.833,0-45.034-20.201-45.034-45.034c0-24.833,20.201-45.034,45.034-45.034
	c24.833,0,45.034,20.201,45.034,45.034C450.474,281.586,430.273,301.787,405.44,301.787z"/>
<path style="fill:#A680FF;" d="M125.238,226.731c-7.623,0-15.349-1.949-22.429-6.026c-21.491-12.416-28.894-40.006-16.491-61.511
	c12.431-21.505,40.02-28.894,61.511-16.506c0,0,0.015,0,0.029,0c21.476,12.431,28.879,40.02,16.477,61.511
	C155.994,218.639,140.822,226.731,125.238,226.731z"/>
<path style="fill:#87D92B;" d="M168.666,343.398c2.972-11.039,1.697-23.352-4.457-34.179c-1.911-3.609-4.458-6.581-7.218-9.341
	c-14.012-14.012-36.09-17.408-54.134-7.006c-21.655,12.313-28.873,39.912-16.559,61.565c8.278,14.223,23.566,22.291,39.062,22.503
	c3.82,0,7.642-0.425,11.25-1.486c4.034-1.061,7.642-2.547,11.25-4.458C158.689,364.84,165.905,354.65,168.666,343.398z"/>
<path style="fill:#7FCC29;" d="M147.86,370.996c-3.609,1.911-7.217,3.398-11.25,4.458l32.056-32.056
	C165.905,354.65,158.689,364.84,147.86,370.996z"/>
<path style="fill:#5C5F66;" d="M280.544,306.672l-71.968,14.648c-5.306,1.061-10.19-0.85-13.585-4.246
	c-3.397-3.397-5.307-8.279-4.246-13.585l14.648-71.968c2.972-14.435,9.341-27.598,19.318-37.574
	c11.677-11.677,27.812-18.894,48.19-18.469l18.045-3.184l48.616,48.616l-2.972,18.257
	C337.437,277.376,311.538,300.727,280.544,306.672z"/>
<path style="fill:#53565C;" d="M280.544,306.672l-71.968,14.648c-5.306,1.061-10.19-0.85-13.585-4.246l120.37-120.37l24.201,24.201
	l-2.972,18.257C337.437,277.376,311.538,300.727,280.544,306.672z"/>
<path style="fill:#FCB33B;" d="M327.794,205.499l-21.229-21.229l-6.219-36.239L435.122,13.255c17.587-17.587,46.101-17.587,63.688,0
	l0,0c17.587,17.587,17.587,46.101,0,63.688L364.035,211.717L327.794,205.499z"/>
<path style="fill:#F69838;" d="M327.794,205.499l36.24,6.219L498.809,76.942c17.587-17.587,17.587-46.101,0-63.688L317.18,194.883
	L327.794,205.499z"/>
<rect x="276.536" y="166.676" transform="matrix(-0.7071 -0.7071 0.7071 -0.7071 414.2637 552.5555)" style="fill:#C4CAD9;" width="90.067" height="47.609"/>
<rect x="314.982" y="182.598" transform="matrix(0.7071 0.7071 -0.7071 0.7071 244.7996 -178.1937)" style="fill:#B8BFCC;" width="45.034" height="47.609"/>
<g>
</g>
<g>
</g>
<g>
</g>
<g>
</g>
<g>
</g>
<g>
</g>
<g>
</g>
<g>
</g>
<g>
</g>
<g>
</g>
<g>
</g>
<g>
</g>
<g>
</g>
<g>
</g>
<g>
</g>
</svg>
